<svg xmlns="http://www.w3.org/2000/svg" xmlns:xlink="http://www.w3.org/1999/xlink" width="12" height="8" viewBox="0 0 12 8"><defs><path id="8r70a" d="M923.26 165.27l4.74 5.46"/><path id="8r70b" d="M932.74 165.27l-4.74 5.46"/></defs><g><g transform="rotate(-1 -8929.27 52911.37)"><g><use fill="#fff" fill-opacity="0" stroke="#11306f" stroke-linecap="square" stroke-miterlimit="50" xlink:href="#8r70a"/></g><g><use fill="#fff" fill-opacity="0" stroke="#11306f" stroke-linecap="square" stroke-miterlimit="50" xlink:href="#8r70b"/></g></g></g></svg><svg width="7"
 transform="rotate(-270 0 0)" height="12" viewBox="0 0 7 12" fill="none" xmlns="http://www.w3.org/2000/svg">
<path d="M6.80994 5.53176L1.50758 0.191706C1.38495 0.068097 1.22124 0 1.04668 0C0.872118 0 0.708408 0.068097 0.585771 0.191706L0.195289 0.584873C-0.0587998 0.841066 -0.0587998 1.25745 0.195289 1.51326L4.64781 5.99751L0.190349 10.4867C0.0677119 10.6104 0 10.7751 0 10.9508C0 11.1267 0.0677119 11.2915 0.190349 11.4152L0.580831 11.8083C0.703565 11.9319 0.867178 12 1.04174 12C1.2163 12 1.38001 11.9319 1.50264 11.8083L6.80994 6.46336C6.93287 6.33936 7.00039 6.1738 7 5.99781C7.00039 5.82112 6.93287 5.65566 6.80994 5.53176Z" fill="#009fdb"/>
</svg>