<svg width="23" height="23" viewBox="0 0 23 23" fill="none" xmlns="http://www.w3.org/2000/svg">
<path d="M4.42666 20.4658C4.40876 20.451 4.41785 20.4331 4.44147 20.4449C5.69501 21.1487 7.91501 21.9388 11.4313 21.9473C15.4772 21.9571 18.0501 20.6486 18.9533 20.0485C18.9769 20.0338 18.9888 20.0486 18.9646 20.0698C16.9513 21.8258 14.3162 22.8918 11.4291 22.8848C8.79036 22.8784 6.36064 21.971 4.42666 20.4658ZM12.2089 21.0686C15.0212 21.0754 18.1137 20.3162 19.9655 18.8023C20.4724 18.3903 20.9558 17.8404 21.3891 17.1017C21.6386 16.6769 21.8825 16.1715 22.0815 15.6747C22.0904 15.6509 22.0754 15.6389 22.0574 15.6657C20.3322 18.1922 15.3509 19.7582 10.2116 19.7458C6.57891 19.737 2.67316 18.5658 1.14821 16.3428C1.13318 16.3219 1.11808 16.331 1.12707 16.3548C2.54561 19.389 6.86619 21.0557 12.2089 21.0686ZM9.14851 16.0326C3.29948 16.0185 0.547661 13.2867 0.0520012 11.4257C0.0460355 11.3984 0.028084 11.4045 0.0280257 11.4286C0.0265121 12.0545 0.087414 12.8631 0.194054 13.3995C0.244375 13.6603 0.455923 14.0709 0.7664 14.3982C2.17949 15.8783 5.70559 17.9562 11.821 17.971C20.153 17.9911 22.0645 15.2195 22.4557 14.307C22.7359 13.6548 22.8827 12.475 22.8851 11.4839C22.8857 11.2441 22.88 11.0525 22.8714 10.8639C22.8714 10.8337 22.854 10.831 22.8477 10.8606C22.426 13.0941 15.2999 16.0475 9.14851 16.0326ZM1.14178 6.52845C0.805097 7.19272 0.430954 8.31467 0.318915 8.89536C0.270061 9.14413 0.290564 9.2637 0.377098 9.44978C1.07477 10.9399 4.61471 13.3294 12.8867 13.3494C17.9328 13.3616 21.8562 12.1311 22.4966 9.86884C22.6146 9.45245 22.6217 9.01231 22.4731 8.41909C22.3068 7.75646 21.9946 6.98333 21.7295 6.44062C21.7205 6.4225 21.7054 6.42548 21.7082 6.44628C21.7999 9.41477 13.5204 11.3084 9.34551 11.2983C4.82314 11.2874 1.05418 9.47539 1.05969 7.19905C1.06022 6.98048 1.10567 6.76202 1.16304 6.53454C1.1688 6.51375 1.15088 6.51038 1.14178 6.52845ZM19.0245 2.92693C19.0721 3.00196 19.096 3.08281 19.0958 3.19059C19.0927 4.46059 15.2027 6.69737 9.01826 6.68242C4.47478 6.67143 3.62854 4.98319 3.63114 3.91081C3.63206 3.52748 3.77968 3.13561 4.10429 2.7383C4.12229 2.71422 4.10723 2.70513 4.08639 2.72318C3.49518 3.22175 2.9516 3.78345 2.4741 4.39055C2.24579 4.67746 2.10422 4.93172 2.10385 5.08426C2.09848 7.30648 7.66488 8.93122 12.8733 8.94381C18.4228 8.95723 20.904 7.15132 20.9078 5.55815C20.9092 4.98895 20.6886 4.65603 20.1238 4.0107C19.7567 3.5906 19.4098 3.24849 19.0425 2.91189C19.0246 2.89708 19.0123 2.90896 19.0245 2.92693ZM17.3262 1.65313C15.6158 0.62185 13.6286 0.032916 11.4844 0.0277303C9.325 0.0225082 7.27481 0.622471 5.55322 1.67244C5.03722 1.98849 4.74613 2.24255 4.74534 2.56906C4.74301 3.5335 6.99271 4.57513 10.9879 4.5848C14.9414 4.59436 18.0107 3.46654 18.0133 2.37352C18.0139 2.11289 17.7868 1.92964 17.3262 1.65313Z" fill="#009FDB"/>
</svg>
