<svg xmlns="http://www.w3.org/2000/svg" x="0px" y="0px"
width="24" height="24"
viewBox="0 0 172 172"
style=" fill:#000000;"><g transform="translate(0.516,0.516) scale(0.994,0.994)"><g fill="none" fill-rule="nonzero" stroke="none" stroke-width="1" stroke-linecap="butt" stroke-linejoin="none" stroke-miterlimit="10" stroke-dasharray="" stroke-dashoffset="0" font-family="none" font-weight="none" font-size="none" text-anchor="none" style="mix-blend-mode: normal"><g fill="#000000" stroke="#cccccc" stroke-linejoin="round"><path d="M127.20833,17.91667c8.89025,0 16.125,7.23475 16.125,16.125v59.19499c-3.21425,-2.42233 -6.82625,-4.34871 -10.75,-5.58496v-53.61003c0,-2.96342 -2.41158,-5.375 -5.375,-5.375h-82.41667c-2.96342,0 -5.375,2.41158 -5.375,5.375v103.91667c0,2.96342 2.41158,5.375 5.375,5.375h48.44499c3.42925,4.55083 7.90623,8.24883 13.08057,10.75h-61.52555c-8.89025,0 -16.125,-7.23475 -16.125,-16.125v-103.91667c0,-8.89025 7.23475,-16.125 16.125,-16.125zM109.29167,43c1.93842,-0.02741 3.74144,0.99102 4.71865,2.66532c0.97721,1.6743 0.97721,3.74507 0,5.41937c-0.97721,1.6743 -2.78023,2.69273 -4.71865,2.66532h-53.75c-1.93842,0.02741 -3.74144,-0.99102 -4.71865,-2.66532c-0.97721,-1.6743 -0.97721,-3.74507 0,-5.41937c0.97721,-1.6743 2.78023,-2.69273 4.71865,-2.66532zM109.29167,68.08333c1.93842,-0.02741 3.74144,0.99102 4.71865,2.66532c0.97721,1.6743 0.97721,3.74507 0,5.41937c-0.97721,1.6743 -2.78023,2.69273 -4.71865,2.66532h-53.75c-1.93842,0.02741 -3.74144,-0.99102 -4.71865,-2.66532c-0.97721,-1.6743 -0.97721,-3.74507 0,-5.41937c0.97721,-1.6743 2.78023,-2.69273 4.71865,-2.66532zM80.625,93.16667c1.93842,-0.02741 3.74144,0.99102 4.71865,2.66532c0.97721,1.6743 0.97721,3.74507 0,5.41937c-0.97721,1.6743 -2.78023,2.69273 -4.71865,2.66532h-25.08333c-1.93842,0.02741 -3.74144,-0.99102 -4.71865,-2.66532c-0.97721,-1.6743 -0.97721,-3.74507 0,-5.41937c0.97721,-1.6743 2.78023,-2.69273 4.71865,-2.66532zM150.5,121.83333c0,5.96625 -1.83383,11.50317 -4.96208,16.09701l17.7207,17.7277c2.09625,2.09983 2.09625,5.50075 0,7.60059c-1.04992,1.04992 -2.42429,1.57471 -3.80029,1.57471c-1.376,0 -2.75038,-0.52121 -3.80029,-1.57471l-17.7277,-17.7277c-4.59384,3.13183 -10.13076,4.96908 -16.09701,4.96908c-15.80608,0 -28.66667,-12.86058 -28.66667,-28.66667c0,-15.80608 12.86058,-28.66667 28.66667,-28.66667c15.80608,0 28.66667,12.86058 28.66667,28.66667zM103.91667,121.83333c0,9.87925 8.03742,17.91667 17.91667,17.91667c9.87925,0 17.91667,-8.03742 17.91667,-17.91667c0,-9.87925 -8.03742,-17.91667 -17.91667,-17.91667c-9.87925,0 -17.91667,8.03742 -17.91667,17.91667zM86.18197,118.25c-0.11825,1.17892 -0.18197,2.37217 -0.18197,3.58333c0,2.45458 0.24787,4.85183 0.72087,7.16667h-31.1792c-2.97058,0 -5.375,-2.40442 -5.375,-5.375c0,-2.97058 2.40442,-5.375 5.375,-5.375z"></path></g><path d="M0,172v-172h172v172z" fill="none" stroke="none" stroke-linejoin="miter"></path><g fill="#ffffff" stroke="none" stroke-linejoin="miter"><path d="M44.79167,17.91667c-8.89025,0 -16.125,7.23475 -16.125,16.125v103.91667c0,8.89025 7.23475,16.125 16.125,16.125h61.52555c-5.17433,-2.50117 -9.65132,-6.19917 -13.08057,-10.75h-48.44499c-2.96342,0 -5.375,-2.41158 -5.375,-5.375v-103.91667c0,-2.96342 2.41158,-5.375 5.375,-5.375h82.41667c2.96342,0 5.375,2.41158 5.375,5.375v53.61003c3.92375,1.23625 7.53575,3.16262 10.75,5.58496v-59.19499c0,-8.89025 -7.23475,-16.125 -16.125,-16.125zM55.54167,43c-1.93842,-0.02741 -3.74144,0.99102 -4.71865,2.66532c-0.97721,1.6743 -0.97721,3.74507 0,5.41937c0.97721,1.6743 2.78023,2.69273 4.71865,2.66532h53.75c1.93842,0.02741 3.74144,-0.99102 4.71865,-2.66532c0.97721,-1.6743 0.97721,-3.74507 0,-5.41937c-0.97721,-1.6743 -2.78023,-2.69273 -4.71865,-2.66532zM55.54167,68.08333c-1.93842,-0.02741 -3.74144,0.99102 -4.71865,2.66532c-0.97721,1.6743 -0.97721,3.74507 0,5.41937c0.97721,1.6743 2.78023,2.69273 4.71865,2.66532h53.75c1.93842,0.02741 3.74144,-0.99102 4.71865,-2.66532c0.97721,-1.6743 0.97721,-3.74507 0,-5.41937c-0.97721,-1.6743 -2.78023,-2.69273 -4.71865,-2.66532zM55.54167,93.16667c-1.93842,-0.02741 -3.74144,0.99102 -4.71865,2.66532c-0.97721,1.6743 -0.97721,3.74507 0,5.41937c0.97721,1.6743 2.78023,2.69273 4.71865,2.66532h25.08333c1.93842,0.02741 3.74144,-0.99102 4.71865,-2.66532c0.97721,-1.6743 0.97721,-3.74507 0,-5.41937c-0.97721,-1.6743 -2.78023,-2.69273 -4.71865,-2.66532zM121.83333,93.16667c-15.80608,0 -28.66667,12.86058 -28.66667,28.66667c0,15.80608 12.86058,28.66667 28.66667,28.66667c5.96625,0 11.50317,-1.83724 16.09701,-4.96908l17.7277,17.7277c1.04992,1.0535 2.42429,1.57471 3.80029,1.57471c1.376,0 2.75038,-0.52479 3.80029,-1.57471c2.09625,-2.09983 2.09625,-5.50075 0,-7.60059l-17.7207,-17.7277c3.12825,-4.59384 4.96208,-10.13076 4.96208,-16.09701c0,-15.80608 -12.86058,-28.66667 -28.66667,-28.66667zM121.83333,103.91667c9.87925,0 17.91667,8.03742 17.91667,17.91667c0,9.87925 -8.03742,17.91667 -17.91667,17.91667c-9.87925,0 -17.91667,-8.03742 -17.91667,-17.91667c0,-9.87925 8.03742,-17.91667 17.91667,-17.91667zM55.54167,118.25c-2.97058,0 -5.375,2.40442 -5.375,5.375c0,2.97058 2.40442,5.375 5.375,5.375h31.1792c-0.473,-2.31483 -0.72087,-4.71208 -0.72087,-7.16667c0,-1.21117 0.06372,-2.40442 0.18197,-3.58333z"></path></g><path d="" fill="none" stroke="none" stroke-linejoin="miter"></path></g></g></svg>