<svg xmlns="http://www.w3.org/2000/svg" x="0px" y="0px"
width="24" height="24"
viewBox="0 0 172 172"
style=" fill:#000000;"><g fill="none" fill-rule="nonzero" stroke="none" stroke-width="1" stroke-linecap="butt" stroke-linejoin="miter" stroke-miterlimit="10" stroke-dasharray="" stroke-dashoffset="0" font-family="none" font-weight="none" font-size="none" text-anchor="none" style="mix-blend-mode: normal"><path d="M0,172v-172h172v172z" fill="none"></path><g fill="#ffffff"><path d="M99.33,0c-0.06719,0.02688 -0.14781,0.06719 -0.215,0.1075l-96.32,18.275c-1.63937,0.30906 -2.82187,1.76031 -2.795,3.44v128.355c-0.02687,1.67969 1.15563,3.13094 2.795,3.44l96.32,18.275c0.99438,0.18813 2.02906,-0.06719 2.82188,-0.71219c0.77937,-0.645 1.24969,-1.59906 1.26312,-2.62031v-17.2h58.48c3.7625,0 6.88,-3.1175 6.88,-6.88v-116.96c0,-3.7625 -3.1175,-6.88 -6.88,-6.88h-58.48v-17.2c0.01344,-0.99437 -0.41656,-1.935 -1.15562,-2.59344c-0.73906,-0.65844 -1.73344,-0.9675 -2.71438,-0.84656zM96.32,7.525v14.9425c-0.45687,0.95406 -0.45687,2.05594 0,3.01v121.7975c-0.09406,0.45688 -0.09406,0.94063 0,1.3975v15.8025l-89.44,-17.0925v-122.765zM103.2,27.52h58.48v116.96h-58.48v-17.2h13.76v-6.88h-13.76v-20.64h13.76v-6.88h-13.76v-17.2h13.76v-6.88h-13.76v-17.2h13.76v-6.88h-13.76zM123.84,44.72v6.88h27.52v-6.88zM23.005,53.965l18.8125,32.1425l-20.5325,32.1425h17.2l11.18,-20.7475c0.77938,-2.00219 1.29,-3.53406 1.505,-4.515h0.1075c0.44344,2.09625 0.87344,3.52063 1.29,4.3l11.18,20.9625h17.0925l-19.78,-32.465l19.2425,-31.82h-16.125l-10.2125,19.0275c-0.98094,2.48594 -1.67969,4.44781 -2.0425,5.6975h-0.1075c-0.56437,-2.09625 -1.20937,-3.96406 -1.935,-5.4825l-9.245,-19.2425zM123.84,68.8v6.88h27.52v-6.88zM123.84,92.88v6.88h27.52v-6.88zM123.84,120.4v6.88h27.52v-6.88z"></path></g></g></svg>