<svg xmlns="http://www.w3.org/2000/svg" x="0px" y="0px"
width="30" height="30"
viewBox="0 0 172 172"
style=" fill:#000000;"><g fill="none" fill-rule="nonzero" stroke="none" stroke-width="1" stroke-linecap="butt" stroke-linejoin="miter" stroke-miterlimit="10" stroke-dasharray="" stroke-dashoffset="0" font-family="none" font-weight="none" font-size="none" text-anchor="none" style="mix-blend-mode: normal"><path d="M0,172v-172h172v172z" fill="none"></path><g fill="#ffffff"><path d="M86,14.33333c-39.49552,0 -71.66667,32.17115 -71.66667,71.66667c0,39.49552 32.17115,71.66667 71.66667,71.66667c39.49552,0 71.66667,-32.17115 71.66667,-71.66667c0,-39.49552 -32.17115,-71.66667 -71.66667,-71.66667zM86,28.66667c31.74921,0 57.33333,25.58412 57.33333,57.33333c0,31.74921 -25.58412,57.33333 -57.33333,57.33333c-31.74921,0 -57.33333,-25.58412 -57.33333,-57.33333c0,-31.74921 25.58412,-57.33333 57.33333,-57.33333zM86,43c-15.83833,0 -28.66667,12.82833 -28.66667,28.66667h14.33333c0,-7.88333 6.45,-14.33333 14.33333,-14.33333c7.88333,0 14.33333,6.45 14.33333,14.33333c0,14.33333 -21.5,16.9635 -21.5,35.83333h14.33333c0,-11.83217 21.5,-17.91667 21.5,-35.83333c0,-15.83833 -12.82833,-28.66667 -28.66667,-28.66667zM78.83333,114.66667v14.33333h14.33333v-14.33333z"></path></g></g></svg>