<svg xmlns="http://www.w3.org/2000/svg" x="0px" y="0px"
width="26" height="26"
viewBox="0 0 172 172"
style=" fill:#000000;"><g fill="none" fill-rule="nonzero" stroke="none" stroke-width="1" stroke-linecap="butt" stroke-linejoin="miter" stroke-miterlimit="10" stroke-dasharray="" stroke-dashoffset="0" font-family="none" font-weight="none" font-size="none" text-anchor="none" style="mix-blend-mode: normal"><path d="M0,172v-172h172v172z" fill="none"></path><g fill="#e67e22"><path d="M105.84615,0c-14.6262,0 -27.26262,6.07272 -35.14423,15.91827c-7.88161,9.84555 -11.16346,22.61118 -11.16346,36.38462v7.23558h19.84615v-7.23558c0,-10.4399 2.58413,-18.65745 6.82212,-23.98077c4.23798,-5.32331 10.0006,-8.47596 19.63942,-8.47596c9.66467,0 15.40144,2.97176 19.63942,8.26923c4.23798,5.29747 6.82212,13.61839 6.82212,24.1875v7.23558h19.84615v-7.23558c0,-13.85096 -3.48858,-26.74579 -11.37019,-36.59135c-7.88161,-9.84555 -20.33714,-15.71154 -34.9375,-15.71154zM59.53846,66.15385c-10.95673,0 -19.84615,8.88942 -19.84615,19.84615v66.15385c0,10.95673 8.88942,19.84615 19.84615,19.84615h92.61538c10.95673,0 19.84615,-8.88942 19.84615,-19.84615v-66.15385c0,-10.95673 -8.88942,-19.84615 -19.84615,-19.84615zM105.84615,99.23077c7.3131,0 13.23077,5.91767 13.23077,13.23077c0,4.88401 -2.66166,9.07031 -6.61538,11.37019v15.09135c0,3.64363 -2.97176,6.61538 -6.61538,6.61538c-3.64363,0 -6.61538,-2.97176 -6.61538,-6.61538v-15.09135c-3.95372,-2.29988 -6.61538,-6.48618 -6.61538,-11.37019c0,-7.3131 5.91767,-13.23077 13.23077,-13.23077z"></path></g></g></svg>