<svg xmlns="http://www.w3.org/2000/svg" x="0px" y="0px"
width="30" height="30"
viewBox="0 0 172 172"
style=" fill:#000000;"><g fill="none" fill-rule="nonzero" stroke="none" stroke-width="1" stroke-linecap="butt" stroke-linejoin="miter" stroke-miterlimit="10" stroke-dasharray="" stroke-dashoffset="0" font-family="none" font-weight="none" font-size="none" text-anchor="none" style="mix-blend-mode: normal"><path d="M0,172v-172h172v172z" fill="none"></path><g fill="#ffffff"><path d="M78.83333,14.33333v71.66667h14.33333v-71.66667zM64.5,17.62272c-29.07517,9.1375 -50.16667,36.29211 -50.16667,68.37728c0,39.5815 32.08517,71.66667 71.66667,71.66667c39.5815,0 71.66667,-32.08517 71.66667,-71.66667c0,-32.08517 -21.0915,-59.23978 -50.16667,-68.37728v15.25716c21.0055,8.50683 35.83333,29.06878 35.83333,53.12012c0,31.66233 -25.671,57.33333 -57.33333,57.33333c-31.66233,0 -57.33333,-25.671 -57.33333,-57.33333c0,-24.0585 14.82783,-44.61328 35.83333,-53.12012z"></path></g></g></svg>