<svg width="22" height="22" viewBox="0 0 22 22" fill="none" xmlns="http://www.w3.org/2000/svg">
<path d="M15.0875 14C16.4412 12.3666 17.1137 10.2746 16.9653 8.15841C16.8169 6.0422 15.859 4.06449 14.2906 2.63606C12.7222 1.20762 10.6638 0.438252 8.54297 0.487753C6.42215 0.537254 4.4019 1.40182 2.90184 2.90188C1.40179 4.40193 0.537223 6.42218 0.487722 8.543C0.438221 10.6638 1.20759 12.7222 2.63603 14.2906C4.06446 15.859 6.04217 16.8169 8.15838 16.9653C10.2746 17.1137 12.3666 16.4412 14 15.0875L20.195 21.2825L21.26 20.2175L15.0875 14ZM8.74996 15.5C7.41494 15.5 6.10989 15.1041 4.99986 14.3624C3.88983 13.6207 3.02467 12.5665 2.51377 11.3331C2.00288 10.0997 1.86921 8.7425 2.12966 7.43313C2.39011 6.12376 3.03298 4.92102 3.97699 3.97702C4.92099 3.03302 6.12373 2.39014 7.4331 2.12969C8.74247 1.86924 10.0997 2.00291 11.3331 2.5138C12.5665 3.0247 13.6207 3.88986 14.3624 4.99989C15.1041 6.10992 15.5 7.41497 15.5 8.74999C15.5 10.5402 14.7888 12.2571 13.5229 13.523C12.2571 14.7888 10.5402 15.5 8.74996 15.5Z" fill="#878C94"/>
</svg>
